# xmcd
#
# Track frame offsets: 
#        150
#        15316
#        29804
#        46819
#        63378
#        82907
#        101465
#        119950
#        137892
#        153344
#        174338
#        192041
#        210108
#        233970
#        254020
#        273972
#        297249
#        321625
#
# Disc length: 4513 seconds
#
# Revision: 1
# Processed by: cddbd v1.5.2PL0 Copyright (c) Steve Scherf et al.
# Submitted via: ExactAudioCopy v0.95a3
#
DISCID=01119f12
DTITLE=Various Artist - Hit Courier RadioPress Сентябрь (2) 2001
DYEAR=2001
DGENRE=Pop
TTITLE0=Динамит - Красивые Слова
TTITLE1=Филипп Киркоров - Я За Тебя Умру
TTITLE2=Никита - В Твоей Любвия Я Утону
TTITLE3=Тина Раш - Уезжаю К Морю
TTITLE4=Семён Канада - Родная Жена
TTITLE5=Ксения - Твой Поцелуй
TTITLE6=Иггорь Браславский - Я Тебя Люблю
TTITLE7=Алёна Петрова - Гватемала
TTITLE8=Кати and Co - Маска
TTITLE9=Кати and Co - Бьются Чашки
TTITLE10=Группа Тэлика - Смотри На Свет
TTITLE11=Группа Тэлика - Я Хочу Тебе Сниться
TTITLE12=Гавана - Осень, Я И Огонь
TTITLE13=Игрушки - Первый День 18-Ти Лет
TTITLE14=Палата №6 - Галки-Нахалки
TTITLE15=Палата №6 - Выходили
TTITLE16=Китти Льюис - Марш "Большой Оклахомский Театр"
TTITLE17=Игорь Котов - Дачница
EXTD=
EXTT0=
EXTT1=
EXTT2=
EXTT3=
EXTT4=
EXTT5=
EXTT6=
EXTT7=
EXTT8=
EXTT9=
EXTT10=
EXTT11=
EXTT12=
EXTT13=
EXTT14=
EXTT15=
EXTT16=
EXTT17=
PLAYORDER=
